<?xml version="1.0" standalone="no"?>
<!DOCTYPE svg PUBLIC "-//W3C//DTD SVG 20010904//EN"
 "http://www.w3.org/TR/2001/REC-SVG-20010904/DTD/svg10.dtd">
<svg version="1.0" xmlns="http://www.w3.org/2000/svg"
 width="200.000000pt" height="200.000000pt" viewBox="0 0 200.000000 200.000000"
 preserveAspectRatio="xMidYMid meet">
<metadata>
Created by potrace 1.11, written by Peter Selinger 2001-2013
</metadata>
<g transform="translate(0.000000,200.000000) scale(0.100000,-0.100000)"
fill="#000000" stroke="none">
<path d="M330 1747 l0 -42 668 0 667 0 3 43 3 42 -670 0 -671 0 0 -43z"/>
<path d="M169 1620 c-1 -3 -2 -22 -3 -43 l-2 -37 835 2 835 3 2 30 c1 17 0 35
-3 40 -3 11 -1662 16 -1664 5z"/>
<path d="M0 834 l0 -624 1000 0 1000 0 0 625 0 624 -1000 0 -1000 -1 0 -624z
m1915 1 c0 -294 -2 -536 -5 -536 -3 -1 -413 -2 -913 -3 -598 -1 -907 2 -908 9
-4 30 -4 1042 -1 1053 3 9 195 12 916 12 l911 0 0 -535z"/>
<path d="M745 1096 c-17 -19 -78 -85 -137 -146 -70 -73 -105 -117 -100 -125 4
-7 66 -74 138 -149 l131 -136 26 28 c15 16 27 31 27 34 0 7 -37 47 -137 151
l-76 77 24 27 c13 15 60 65 104 111 44 46 81 89 83 95 1 7 -10 25 -26 40 l-28
27 -29 -34z"/>
<path d="M1195 1100 c-15 -16 -26 -33 -24 -39 2 -5 38 -45 79 -88 141 -148
135 -138 113 -160 -10 -11 -57 -61 -105 -111 -49 -50 -88 -94 -88 -98 0 -4 12
-21 27 -36 l27 -28 64 67 c35 38 98 103 139 146 l76 77 -19 23 c-10 12 -28 31
-39 42 -11 12 -66 69 -122 127 l-101 106 -27 -28z"/>
</g>
</svg>
